# xmcd
#
# Track frame offsets: 
#        150
#        13151
#        26545
#        40213
#        53202
#        65148
#        77856
#        91496
#        103522
#        116539
#        131605
#        143016
#        155116
#        166444
#        178523
#        191484
#
# Disc length: 2709 seconds
#
# Revision: 0
# Processed by: cddbd v1.5PL3 Copyright (c) Steve Scherf et al.
# Submitted via: ExactAudioCopy v0.95a3
#
DISCID=dc0a9310
DTITLE=Robert Johnson - Deal with the Devil Vol. 1
DYEAR=1900
DGENRE=Blues
TTITLE0=Kindhearted Woman
TTITLE1=(I Believe I'll) Dust My Broom
TTITLE2=Sweet Home Chicago
TTITLE3=Rambling On My Mind
TTITLE4=When You Got A Good Friend
TTITLE5=Come On In My Kitchen
TTITLE6=Terraplane Blues
TTITLE7=Phonograph Blues
TTITLE8=32-20 Blues
TTITLE9=They're Red Hot
TTITLE10=Dead Shrimp Blues
TTITLE11=Cross Road Blues
TTITLE12=Walkin' Blues
TTITLE13=Last Fair Deal Gone Down
TTITLE14=Preaching Blues
TTITLE15=If I Had Possession Over Judgement Day
EXTD=
EXTT0=
EXTT1=
EXTT2=
EXTT3=
EXTT4=
EXTT5=
EXTT6=
EXTT7=
EXTT8=
EXTT9=
EXTT10=
EXTT11=
EXTT12=
EXTT13=
EXTT14=
EXTT15=
PLAYORDER=
